HIERARCHY
ROOT Hips
{
  OFFSET 0 0.240689 0
  CHANNELS 6 Xposition Yposition Zposition Zrotation Xrotation Yrotation
  JOINT Bip01_Spine0
  {
    OFFSET 0 -24.7459 49.7988
    CHANNELS 6 Xposition Yposition Zposition Zrotation Xrotation Yrotation
    JOINT Bip01_Pelvis
    {
      OFFSET 0 0 0
      CHANNELS 6 Xposition Yposition Zposition Zrotation Xrotation Yrotation
      JOINT Bip01_Spine0_Tail
      {
        OFFSET -6.47486 -3.86022 0
        CHANNELS 6 Xposition Yposition Zposition Zrotation Xrotation Yrotation
        JOINT Bip01_Spine0_Tail1
        {
          OFFSET 10.3837 -0.00825882 0
          CHANNELS 6 Xposition Yposition Zposition Zrotation Xrotation Yrotation
          JOINT Bip01_Spine0_Tail2
          {
            OFFSET 10.3837 -0.00826263 0
            CHANNELS 6 Xposition Yposition Zposition Zrotation Xrotation Yrotation
            JOINT Bip01_Spine0_Tail3
            {
              OFFSET 10.3837 -0.00825882 0
              CHANNELS 6 Xposition Yposition Zposition Zrotation Xrotation Yrotation
              JOINT Bip01_Spine0_Tail4
              {
                OFFSET 10.3837 -0.00826263 0
                CHANNELS 6 Xposition Yposition Zposition Zrotation Xrotation Yrotation
                End Site
                {
                  OFFSET 0 0 0
                }
              }
            }
          }
        }
      }
      JOINT Bip01_R_Thigh
      {
        OFFSET 0 -1.52588e-005 -8.75617
        CHANNELS 6 Xposition Yposition Zposition Zrotation Xrotation Yrotation
        JOINT Bip01_R_Calf
        {
          OFFSET 19.7638 0 0
          CHANNELS 6 Xposition Yposition Zposition Zrotation Xrotation Yrotation
          JOINT Bip01_R_Foot
          {
            OFFSET 18.6534 0 0
            CHANNELS 6 Xposition Yposition Zposition Zrotation Xrotation Yrotation
            JOINT Bip01_R_Toe0
            {
              OFFSET 5.09145 13.9567 0
              CHANNELS 6 Xposition Yposition Zposition Zrotation Xrotation Yrotation
              JOINT Bip01_R_Toe01
              {
                OFFSET 4.28803 0 0
                CHANNELS 6 Xposition Yposition Zposition Zrotation Xrotation Yrotation
                JOINT Bip01_R_Toe02
                {
                  OFFSET 3.85801 0 0
                  CHANNELS 6 Xposition Yposition Zposition Zrotation Xrotation Yrotation
                  End Site
                  {
                    OFFSET 0 0 0
                  }
                }
              }
            }
          }
        }
      }
      JOINT Bip01_L_Thigh
      {
        OFFSET 0 1.52588e-005 8.75617
        CHANNELS 6 Xposition Yposition Zposition Zrotation Xrotation Yrotation
        JOINT Bip01_L_Calf
        {
          OFFSET 19.7638 0 0
          CHANNELS 6 Xposition Yposition Zposition Zrotation Xrotation Yrotation
          JOINT Bip01_L_Foot
          {
            OFFSET 18.6534 0 0
            CHANNELS 6 Xposition Yposition Zposition Zrotation Xrotation Yrotation
            JOINT Bip01_L_Toe0
            {
              OFFSET 5.09144 13.9567 0
              CHANNELS 6 Xposition Yposition Zposition Zrotation Xrotation Yrotation
              JOINT Bip01_L_Toe01
              {
                OFFSET 4.28802 0 0
                CHANNELS 6 Xposition Yposition Zposition Zrotation Xrotation Yrotation
                JOINT Bip01_L_Toe02
                {
                  OFFSET 3.85801 0 0
                  CHANNELS 6 Xposition Yposition Zposition Zrotation Xrotation Yrotation
                  End Site
                  {
                    OFFSET 0 0 0
                  }
                }
              }
            }
          }
        }
      }
      JOINT Bip01_Spine
      {
        OFFSET 9.14835 -0.00640869 -1.1e-005
        CHANNELS 6 Xposition Yposition Zposition Zrotation Xrotation Yrotation
        JOINT Bip01_Spine1
        {
          OFFSET 8.04366 -0.00638199 0
          CHANNELS 6 Xposition Yposition Zposition Zrotation Xrotation Yrotation
          JOINT Bip01_Spine2
          {
            OFFSET 8.04367 -0.00639343 0
            CHANNELS 6 Xposition Yposition Zposition Zrotation Xrotation Yrotation
            JOINT Bip01_Spine3
            {
              OFFSET 8.04304 -0.00831222 0
              CHANNELS 6 Xposition Yposition Zposition Zrotation Xrotation Yrotation
              JOINT Bip01_Neck
              {
                OFFSET 10.6685 1.06813 0
                CHANNELS 6 Xposition Yposition Zposition Zrotation Xrotation Yrotation
                JOINT Bip01_R_Clavicle
                {
                  OFFSET -3.21661 -4.89635 -9.04802
                  CHANNELS 6 Xposition Yposition Zposition Zrotation Xrotation Yrotation
                  JOINT Bip01_R_UpperArm
                  {
                    OFFSET 19.0492 0 0
                    CHANNELS 6 Xposition Yposition Zposition Zrotation Xrotation Yrotation
                    JOINT Bip01_R_Forearm
                    {
                      OFFSET 10.3706 0 0
                      CHANNELS 6 Xposition Yposition Zposition Zrotation Xrotation Yrotation
                      JOINT Bip01_R_Hand
                      {
                        OFFSET 22.8632 0 0
                        CHANNELS 6 Xposition Yposition Zposition Zrotation Xrotation Yrotation
                        JOINT Bip01_R_Finger0
                        {
                          OFFSET 6.48259 0.103651 0.504496
                          CHANNELS 6 Xposition Yposition Zposition Zrotation Xrotation Yrotation
                          JOINT Bip01_R_Finger01
                          {
                            OFFSET 3.66847 0 0
                            CHANNELS 6 Xposition Yposition Zposition Zrotation Xrotation Yrotation
                            End Site
                            {
                              OFFSET 0 0 0
                            }
                          }
                        }
                      }
                    }
                  }
                }
                JOINT Bip01_L_Clavicle
                {
                  OFFSET -3.21661 -4.89641 9.04797
                  CHANNELS 6 Xposition Yposition Zposition Zrotation Xrotation Yrotation
                  JOINT Bip01_L_UpperArm
                  {
                    OFFSET 19.0492 0 0
                    CHANNELS 6 Xposition Yposition Zposition Zrotation Xrotation Yrotation
                    JOINT Bip01_L_Forearm
                    {
                      OFFSET 10.3706 0 0
                      CHANNELS 6 Xposition Yposition Zposition Zrotation Xrotation Yrotation
                      JOINT Bip01_L_Hand
                      {
                        OFFSET 22.8631 0 0
                        CHANNELS 6 Xposition Yposition Zposition Zrotation Xrotation Yrotation
                        JOINT Bip01_L_Finger0
                        {
                          OFFSET 6.48257 0.103655 -0.504492
                          CHANNELS 6 Xposition Yposition Zposition Zrotation Xrotation Yrotation
                          JOINT Bip01_L_Finger01
                          {
                            OFFSET 3.66844 0 0
                            CHANNELS 6 Xposition Yposition Zposition Zrotation Xrotation Yrotation
                            End Site
                            {
                              OFFSET 0 0 0
                            }
                          }
                        }
                      }
                    }
                  }
                }
                JOINT Bip01_Neck1
                {
                  OFFSET 7.52459 -0.00656509 0
                  CHANNELS 6 Xposition Yposition Zposition Zrotation Xrotation Yrotation
                  JOINT Bip01_Neck2
                  {
                    OFFSET 8.4783 -0.00588226 0
                    CHANNELS 6 Xposition Yposition Zposition Zrotation Xrotation Yrotation
                    JOINT Bip01_Head
                    {
                      OFFSET 8.41606 0 0
                      CHANNELS 6 Xposition Yposition Zposition Zrotation Xrotation Yrotation
                      JOINT EyesBlue
                      {
                        OFFSET 0 0 0
                        CHANNELS 6 Xposition Yposition Zposition Zrotation Xrotation Yrotation
                        JOINT EyesBlue_2
                        {
                          OFFSET 0 -0.500007 0
                          CHANNELS 6 Xposition Yposition Zposition Zrotation Xrotation Yrotation
                          End Site
                          {
                            OFFSET 0 0 0
                          }
                        }
                      }
                      JOINT Bip01_Head2_Eyeleds
                      {
                        OFFSET 6.52751 7.61746 2.2e-005
                        CHANNELS 6 Xposition Yposition Zposition Zrotation Xrotation Yrotation
                        End Site
                        {
                          OFFSET 0 0 0
                        }
                      }
                      JOINT Bip01_Head_Muzzle
                      {
                        OFFSET 2.88628 13.9448 3.88994
                        CHANNELS 6 Xposition Yposition Zposition Zrotation Xrotation Yrotation
                        End Site
                        {
                          OFFSET 0 0 0
                        }
                      }
                      JOINT Bip01_Head1_Jaw
                      {
                        OFFSET 0.271065 1.32405 0
                        CHANNELS 6 Xposition Yposition Zposition Zrotation Xrotation Yrotation
                        JOINT _Bip01_Head11_TungeControler
                        {
                          OFFSET 4.61616 5.82872 0
                          CHANNELS 6 Xposition Yposition Zposition Zrotation Xrotation Yrotation
                          JOINT _Bip01_Ponytail3_tunge
                          {
                            OFFSET 5.17785 2.98805 0
                            CHANNELS 6 Xposition Yposition Zposition Zrotation Xrotation Yrotation
                            JOINT Bip01_Ponytail31
                            {
                              OFFSET 5.57569 0 0
                              CHANNELS 6 Xposition Yposition Zposition Zrotation Xrotation Yrotation
                              JOINT Bip01_Ponytail32
                              {
                                OFFSET 2.93165 0 0
                                CHANNELS 6 Xposition Yposition Zposition Zrotation Xrotation Yrotation
                                JOINT Bip01_Ponytail3Nub
                                {
                                  OFFSET 3.30155 0 0
                                  CHANNELS 6 Xposition Yposition Zposition Zrotation Xrotation Yrotation
                                  End Site
                                  {
                                    OFFSET 0 0 0
                                  }
                                }
                              }
                            }
                          }
                        }
                        JOINT Bip01_Head_JawNub
                        {
                          OFFSET 15.5776 -0.000389099 0
                          CHANNELS 6 Xposition Yposition Zposition Zrotation Xrotation Yrotation
                          End Site
                          {
                            OFFSET 0 0 0
                          }
                        }
                      }
                      JOINT Bip01_Ponytail2
                      {
                        OFFSET 9.40334 1.03973 -6.51764
                        CHANNELS 6 Xposition Yposition Zposition Zrotation Xrotation Yrotation
                        JOINT Bip01_Ponytail21
                        {
                          OFFSET 2.77018 -0.00640106 1.33514e-005
                          CHANNELS 6 Xposition Yposition Zposition Zrotation Xrotation Yrotation
                          End Site
                          {
                            OFFSET 0 0 0
                          }
                        }
                      }
                      JOINT Bip01_Ponytail1
                      {
                        OFFSET 9.40368 1.03969 6.51768
                        CHANNELS 6 Xposition Yposition Zposition Zrotation Xrotation Yrotation
                        JOINT Bip01_Ponytail11
                        {
                          OFFSET 2.77018 -0.00640487 0
                          CHANNELS 6 Xposition Yposition Zposition Zrotation Xrotation Yrotation
                          End Site
                          {
                            OFFSET 0 0 0
                          }
                        }
                      }
                    }
                  }
                }
              }
            }
          }
        }
      }
    }
  }
}
MOTION
Frames:	4
Frame Time:	0.0333333
0 0 0 -90 -44.9999 -90 0.000814 -28.701 33.7481 90.0002 0.000164026 49.962 0 -1.77636e-015 1e-006 -89.9999 -3.90908e-005 -81.2253 -6.39737 -3.85823 -0.987996 172.968 2.11016 12.4705 10.3839 -0.008087 0.001112 4.89693 3.96292 -0.34165 10.3829 -0.00811 -0.000816 -2.19008 -3.70476 -6.80931 10.3839 -0.007934 0.001579 4.38301 6.22779 -8.41536 10.3862 -0.007556 0.000688 21.3557 2.49466 -7.23678 1.1e-005 -1.1e-005 -8.75617 -102.184 0.625563 177.843 19.7638 -1e-006 -1e-006 -94.6908 8.47829e-005 -0.00209376 18.6534 -1e-006 -1.77636e-015 -48.8828 1.47427 -3.62909 5.09143 13.9567 1.58387e-008 70.3135 -2.78623 -4.15199 4.288 -1e-006 -2.84217e-014 19.8192 1.25537e-005 5.43685e-006 3.85799 3e-006 1.01252e-013 -45 -3.44227e-006 8.43252e-006 -1.3e-005 1.5e-005 8.75617 -152.48 5.9945 -163.53 19.7638 7e-006 7.10543e-015 -125.922 0.000945233 -0.00298135 18.6534 3e-006 -8.34888e-014 60.9777 3.73884 -1.10997 5.09143 13.9567 -1.43968e-006 54.0037 1.50816 4.76893 4.288 -1e-006 1e-006 -16.7728 0.00190973 0.00217178 3.85799 -5.68435e-014 -1e-006 -45 -1.17355e-005 -1.42746e-005 9.03272 -0.006332 1.39436 0.0468458 -0.00591727 -8.77378 8.04366 -0.006393 3e-006 3.18055e-015 1.00179e-005 -0 8.04443 -0.005985 -0.001932 7.97681 -17.6416 0.0157092 8.04304 -0.008323 1.99288e-010 -4.29873 2.47098e-005 2.66325e-005 10.6685 1.06813 6.9762e-006 -13.2811 -2.58363e-005 3.20718e-005 -2.46762 -5.31289 -9.04801 -158.4 -74.4065 141.379 19.0492 0 2.84217e-014 103.954 64.1946 -127.087 10.3705 -2.84217e-014 0 -87.3186 4.39639e-005 0.00222429 22.8631 -1e-006 -6.39489e-014 7.63758 21.8742 -13.4695 6.48256 0.103653 0.504495 13.0212 -15.4844 0.648541 3.66844 -1e-006 -1.7053e-013 40.107 4.62814e-005 8.41646e-007 -2.46761 -5.31294 9.04798 -158.483 68.1703 -129.703 19.0492 1.77636e-015 0 86.371 14.0768 86.0936 10.3706 -3e-006 -1.49214e-013 -75.1547 0.000483062 0.00360269 22.8631 3e-006 3.73035e-013 30.4588 -3.27075 19.2474 6.48256 0.103653 -0.504494 43.5635 13.0996 -8.35766 3.66843 3e-006 7.63834e-014 40.1071 4.16316e-006 -7.20206e-006 7.52507 -0.006542 0.00012 -19.9796 -0.0195384 -1.99796 8.47605 -0.006572 2.6e-005 -2.47927 0.000838806 0.00106322 8.41605 -1e-006 -1e-006 -19.9102 -14.7063 18.6744 -2.84217e-013 3e-006 -2e-006 -23.1098 1.37701e-015 90 2.88186e-006 -0.500002 -2.01566e-006 180 90 -90 6.5275 7.61746 2.29547e-005 -104.487 7.01671e-015 -180 2.88629 13.9448 3.88994 -23.1098 1.37701e-015 90 0.271065 1.32405 3.99212e-006 -71.7785 7.62939e-005 -180 4.61616 5.82873 -7.19146e-006 -120.289 1.66435e-006 -1.62507e-006 5.17783 2.98805 2.9627e-006 133.74 1.81433e-006 5.16689e-007 5.57567 -7e-006 -2e-006 1.83152 -1.06811e-007 4.21842e-008 2.93164 1.13687e-013 -2e-006 -17.65 7.71954e-007 -3.676e-007 3.30154 -7e-006 5e-006 -26.1943 1.61993e-005 -1.19545e-005 15.5776 -0.000389 -5.99999e-006 -9.93923e-017 5.96354e-016 -0 9.40332 1.03973 -6.51764 -19.0868 17.2453 20.3009 2.77017 -0.006408 1.49998e-005 2.43503 9.44499e-006 -1.77831e-005 9.40367 1.03968 6.51768 -19.0868 -17.2453 -20.3008 2.77017 -0.006401 -6.00003e-006 2.43503 9.94351e-006 -2.28041e-007 
0 0 0 -90 -42.7507 -90 0.000814 -28.701 33.6608 90.0002 0.000164026 49.962 -7.10543e-015 1.77636e-015 1e-006 -89.9999 3.76826e-005 -85.4245 -6.4472 -3.85823 -0.516643 172.966 3.41908 10.5925 10.3839 -0.008087 0.001112 4.84586 4.9916 0.885409 10.3829 -0.00811 -0.000816 -2.34071 -4.65213 -7.27562 10.3839 -0.007934 0.001579 4.56622 7.84124 -9.30273 10.3862 -0.007556 0.000688 21.4133 3.14267 -7.80657 1.1e-005 -1.1e-005 -8.75617 -103.234 -3.43264 176.901 19.7638 -1e-006 -1e-006 -99.8031 0.000178993 -0.00209378 18.6534 -1e-006 -3.55271e-015 -49.302 1.76775 -3.49754 5.09143 13.9567 -4.0388e-009 70.0623 -2.76784 -4.16411 4.288 -1e-006 -3.37508e-014 19.471 1.22429e-005 5.56536e-006 3.85799 3e-006 1.15463e-013 -45 -2.70951e-006 8.54728e-006 -1.3e-005 1.5e-005 8.75617 -142.647 5.93487 -168.003 19.7638 7e-006 1.06581e-014 -111.208 0.000527678 -0.00297916 18.6534 3e-006 -4.44089e-014 39.4443 3.82014 -0.0115013 5.09143 13.9567 -1.16347e-006 78.4137 3.34593 3.7192 4.288 -1e-006 1e-006 0.338084 0.00245584 0.00151462 3.85799 8.52652e-014 -1e-006 -41.6632 -4.72788e-006 -8.14887e-006 9.10309 -0.006332 0.72866 0.0472896 -0.00248176 -4.57425 8.04366 -0.006393 3e-006 -3.18055e-015 1.00179e-005 -0 8.04443 -0.005985 -0.001932 7.97615 -15.591 0.0137113 8.04304 -0.008323 1.899e-010 -4.29873 2.47281e-005 2.66373e-005 10.6685 1.06813 6.97706e-006 -13.2811 -2.57822e-005 3.20823e-005 -2.46762 -5.31289 -9.04801 -158.401 -73.7063 140.34 19.0492 7.10543e-015 0 123.12 73.3117 -143.147 10.3705 -2.13163e-014 -3.55271e-015 -65.0488 0.000455541 0.00223987 22.8631 -1e-006 -5.68434e-014 -18.866 14.025 -14.1362 6.48256 0.103653 0.504495 8.17829 -15.4844 -0.644281 3.66844 -1e-006 -1.13687e-013 40.107 3.33323e-005 3.27304e-006 -2.46761 -5.31294 9.04798 -158.488 69.1265 -135.728 19.0492 -3.55271e-015 1.42109e-014 86.5071 35.065 87.95 10.3706 -3e-006 -3.69482e-013 -112.916 -0.000766887 0.00359957 22.8631 3e-006 2.98428e-013 43.4927 -2.79225 20.2929 6.48257 0.103653 -0.504494 39.8827 13.5988 -7.50754 3.66843 3e-006 -3.19744e-014 40.1071 3.88592e-006 -6.06566e-006 7.52507 -0.006542 0.00012 -19.9275 -0.0212814 -1.99815 8.47605 -0.006572 2.6e-005 -2.42748 0.000839767 0.00106246 8.41605 -1e-006 -1e-006 -20.4331 -15.6904 16.8 -2.84217e-013 3e-006 -2e-006 -23.1098 1.37701e-015 90 2.88268e-006 -0.500002 -2.01796e-006 -180 90 -90 6.5275 7.61746 2.29662e-005 -104.668 7.01671e-015 -180 2.88629 13.9448 3.88994 -23.1098 1.37701e-015 90 0.271065 1.32405 3.99413e-006 -71.7785 7.62939e-005 -180 4.61616 5.82873 -7.17633e-006 -120.289 1.62381e-006 -1.49666e-006 5.17783 2.98805 2.96091e-006 133.74 1.67741e-006 5.41582e-007 5.57567 -7e-006 -2e-006 1.83152 -1.04467e-007 3.70466e-008 2.93164 1.27898e-013 -2e-006 -17.65 7.82023e-007 -3.19598e-007 3.30154 -7e-006 5e-006 -26.1943 1.63388e-005 -1.18924e-005 15.5776 -0.000389 -5.99999e-006 -3.23025e-015 7.95139e-016 3.18055e-015 9.40332 1.03973 -6.51764 -19.0868 17.2453 20.3009 2.77017 -0.006408 1.49998e-005 2.43503 9.45416e-006 -1.77815e-005 9.40367 1.03968 6.51768 -19.0868 -17.2453 -20.3008 2.77017 -0.006401 -6.00002e-006 2.43503 9.93798e-006 -2.25466e-007 
0 0 0 -90 -40.5066 -90 0.000814 -28.701 33.5674 90.0002 0.000164026 49.962 0 -1.77636e-015 1e-006 -89.9998 -5.37075e-006 -90.6897 -6.46886 -3.85823 0.0771719 173.189 4.74773 7.46568 10.3839 -0.008087 0.001112 4.77643 5.87657 2.07936 10.3829 -0.00811 -0.000816 -2.46924 -5.46749 -7.54602 10.3839 -0.007934 0.001579 4.73393 9.23067 -9.93862 10.3862 -0.007556 0.000688 21.4637 3.70115 -8.16411 1.1e-005 -1.1e-005 -8.75617 -104.334 -8.46999 175.533 19.7638 -1e-006 -1e-006 -105.537 0.000286168 -0.00209353 18.6534 -1e-006 -3.55271e-015 -49.4921 2.04686 -3.34272 5.09143 13.9567 -1.98264e-008 69.8057 -2.74889 -4.17636 4.288 -1e-006 -2.4869e-014 19.083 1.19119e-005 5.70736e-006 3.85799 3e-006 1.1724e-013 -45 -1.98438e-006 8.66207e-006 -1.3e-005 1.5e-005 8.75617 -130.488 4.41626 -172.979 19.7638 7e-006 -3.55271e-015 -94.8834 0.000116591 -0.00296881 18.6534 3e-006 -7.10543e-015 11.1073 3.53879 1.55484 5.09143 13.9567 -9.93429e-007 103.537 4.60687 1.94857 4.288 -1e-006 1e-006 18.2415 0.00280064 0.000685952 3.85799 7.9492e-014 -1e-006 -35.1823 -9.21566e-006 -8.19114e-006 9.13358 -0.006332 -0.109942 0.0473178 0.00186821 0.690865 8.04366 -0.006393 3e-006 -3.18056e-015 1.00179e-005 3.18055e-015 8.04443 -0.005985 -0.001932 7.97565 -11.959 0.0104499 8.04304 -0.008323 1.82895e-010 -4.29873 2.47453e-005 2.66409e-005 10.6685 1.06813 6.97764e-006 -13.2811 -2.57277e-005 3.20895e-005 -2.46762 -5.31289 -9.04801 -158.396 -72.9409 139.341 19.0492 7.10543e-015 7.10543e-015 136.107 78.4087 -152.838 10.3705 0 3.55271e-015 -47.4034 0.000845869 0.0022415 22.8631 -1e-006 -8.52651e-014 -33.2428 6.12146 -18.3288 6.48256 0.103653 0.504495 2.81299 -15.3618 -2.07355 3.66844 -1e-006 -9.23706e-014 40.107 2.90964e-005 3.74915e-006 -2.46761 -5.31294 9.04798 -158.431 70.0751 -141.214 19.0492 -3.55271e-015 -2.13163e-014 88.3751 34.2489 83.3255 10.3706 -3e-006 -2.34479e-013 -130.432 -0.00138971 0.00355584 22.8631 3e-006 -1.13687e-013 52.8867 -2.70881 20.9668 6.48257 0.103653 -0.504494 35.9157 14.0742 -6.55846 3.66843 3e-006 -1.77636e-014 40.1071 6.40596e-006 -6.19383e-006 7.52507 -0.006542 0.00012 -19.8291 -0.0245947 -1.99844 8.47605 -0.006572 2.6e-005 -2.32939 0.000841587 0.00106102 8.41605 -1e-006 -1e-006 -21.4721 -17.4098 13.4401 -2.41585e-013 3e-006 -2e-006 -23.1098 1.37701e-015 90 2.8838e-006 -0.500002 -2.01128e-006 180 90 -90 6.5275 7.61746 2.29813e-005 -104.849 -7.01671e-015 -180 2.88629 13.9448 3.88994 -23.1098 1.37701e-015 90 0.271065 1.32405 3.99675e-006 -71.7785 7.62939e-005 -180 4.61616 5.82873 -7.16115e-006 -120.289 1.61562e-006 -1.36783e-006 5.17783 2.98805 2.95741e-006 133.74 1.53772e-006 5.9004e-007 5.57567 -7e-006 -2e-006 1.83152 -1.05186e-007 3.11001e-008 2.93164 9.9476e-014 -2e-006 -17.65 8.22991e-007 -2.62995e-007 3.30154 -7e-006 5e-006 -26.1943 1.65133e-005 -1.18319e-005 15.5776 -0.000389 -5.99999e-006 1.14301e-015 3.97569e-016 -0 9.40332 1.03973 -6.51764 -19.0868 17.2453 20.3009 2.77017 -0.006408 1.49998e-005 2.43503 9.46832e-006 -1.77855e-005 9.40367 1.03968 6.51768 -19.0868 -17.2453 -20.3008 2.77017 -0.006401 -6e-006 2.43503 9.93105e-006 -2.19765e-007 
0 0 0 -90 -38.2725 -90 0.000814 -28.701 33.4687 90.0002 0.000164026 49.962 0 1.77636e-015 1e-006 -90 2.2695e-005 -95.9696 -6.43979 -3.85823 0.672721 173.589 5.87322 3.93111 10.3839 -0.008087 0.001112 4.70297 6.52677 3.13734 10.3829 -0.00811 -0.000816 -2.54925 -6.06929 -7.57016 10.3839 -0.007934 0.001579 4.85135 10.256 -10.2336 10.3862 -0.007556 0.000688 21.4965 4.11279 -8.25203 1.1e-005 -1.1e-005 -8.75617 -105.521 -13.4836 173.975 19.7638 -1e-006 -1e-006 -110.523 0.000382375 -0.00209243 18.6534 -1e-006 -5.32907e-015 -48.4603 2.2138 -3.23439 5.09143 13.9567 -2.4432e-008 69.6743 -2.73925 -4.18263 4.288 -1e-006 -2.4869e-014 18.8626 1.17283e-005 5.81189e-006 3.85799 3e-006 1.13687e-013 -45 -1.70891e-006 8.67249e-006 -1.3e-005 1.5e-005 8.75617 -121.001 1.08406 -176.67 19.7638 7e-006 0 -85.5294 -0.000105321 -0.00296878 18.6534 3e-006 1.42109e-014 -10.7107 2.72004 2.79574 5.09143 13.9567 -1.11745e-006 107.906 4.74155 1.59235 4.288 -1e-006 1e-006 23.037 0.0028454 0.000450079 3.85799 9.54793e-014 -1e-006 -31.9098 -8.51962e-006 -7.18928e-006 9.09241 -0.006332 -0.950974 0.0469722 0.00621748 5.97091 8.04366 -0.006393 3e-006 -3.18056e-015 1.00179e-005 1.90833e-014 8.04443 -0.005985 -0.001932 7.97466 -7.18963 0.00614758 8.04304 -0.008323 1.73225e-010 -4.29873 2.4751e-005 2.66459e-005 10.6685 1.06813 6.97877e-006 -13.2811 -2.56998e-005 3.21034e-005 -2.46762 -5.31289 -9.04801 -158.389 -72.1638 138.287 19.0492 -3.55271e-015 -7.10543e-015 106.981 77.3997 -120.899 10.3705 0 0 -40.6203 0.0010184 0.00222695 22.8631 -1e-006 -5.32907e-014 -32.9016 -0.961799 -22.7955 6.48256 0.103653 0.504495 -1.88654 -15.1485 -3.31265 3.66844 -1e-006 -1.49214e-013 40.107 3.21736e-005 8.97952e-007 -2.46761 -5.31294 9.04798 -158.385 70.8937 -144.469 19.0492 -3.55271e-015 7.10543e-015 86.9468 20.4481 84.9974 10.3706 -3e-006 -4.9738e-014 -133.615 -0.00149911 0.00354601 22.8631 3e-006 -3.33955e-013 54.9358 -4.37666 21.3777 6.48257 0.103653 -0.504494 32.4826 14.432 -5.71297 3.66843 3e-006 1.35003e-013 40.1071 9.48629e-006 -7.88817e-006 7.52507 -0.006542 0.00012 -19.6871 -0.0293725 -1.99887 8.47605 -0.006572 2.6e-005 -2.18733 0.00084422 0.00105893 8.41605 -1e-006 -1e-006 -23.0533 -19.6019 8.9382 -1.42109e-013 3e-006 -2e-006 -23.1098 1.37701e-015 90 2.8846e-006 -0.500002 -1.99345e-006 180 90 -90 6.5275 7.61746 2.2996e-005 -105.03 7.01671e-015 -180 2.88629 13.9448 3.88994 -23.1098 1.37701e-015 90 0.271065 1.32405 3.99931e-006 -71.7785 7.62939e-005 -180 4.61616 5.82873 -7.14208e-006 -120.289 1.56491e-006 -1.20602e-006 5.17783 2.98805 2.95512e-006 133.74 1.35011e-006 6.21687e-007 5.57567 -7e-006 -2e-006 1.83152 -1.04383e-007 2.41362e-008 2.93164 2.84217e-014 -2e-006 -17.65 8.54468e-007 -1.97207e-007 3.30154 -7e-006 5e-006 -26.1943 1.66997e-005 -1.17546e-005 15.5776 -0.000389 -5.99999e-006 -1.73937e-015 6.4605e-016 -3.18055e-015 9.40332 1.03973 -6.51764 -19.0867 17.2453 20.3009 2.77017 -0.006408 1.49998e-005 2.43503 9.48341e-006 -1.77941e-005 9.40367 1.03968 6.51768 -19.0868 -17.2453 -20.3008 2.77017 -0.006401 -5.99998e-006 2.43503 9.92331e-006 -2.11265e-007 
